<mxfile host="app.diagrams.net" modified="2023-03-08T19:14:10.509Z" agent="5.0 (Windows NT 10.0; Win64; x64) AppleWebKit/537.36 (KHTML, like Gecko) Chrome/110.0.0.0 Safari/537.36" etag="tXLukG9uxOyK8z3_ezN8" version="21.0.2" type="github">
  <diagram name="Page-1" id="c7558073-3199-34d8-9f00-42111426c3f3">
    <mxGraphModel dx="2702" dy="1718" grid="1" gridSize="10" guides="1" tooltips="1" connect="1" arrows="1" fold="1" page="1" pageScale="1" pageWidth="826" pageHeight="1169" background="none" math="0" shadow="0">
      <root>
        <mxCell id="0" />
        <mxCell id="1" parent="0" />
        <mxCell id="3" value="cfs.retail.internet&#xa;ActivateService" style="whiteSpace=wrap;align=center;verticalAlign=middle;fontStyle=1;strokeWidth=1;fillColor=#FFFFCC" parent="1" vertex="1">
          <mxGeometry x="460" y="-160" width="160" height="40" as="geometry" />
        </mxCell>
        <mxCell id="36" value="provisioningService = &#xa;Cly XGS-PON Internet" style="edgeStyle=elbowEdgeStyle;strokeColor=#990000;strokeWidth=2;exitX=0;exitY=0.5;exitDx=0;exitDy=0;" parent="1" source="X-WOWMCxgD2yHzHwRiwq-127" target="ZC_jucawOaZovoy7LjFs-96" edge="1">
          <mxGeometry x="-0.2928" y="-20" width="100" height="100" relative="1" as="geometry">
            <mxPoint x="20" y="250" as="sourcePoint" />
            <mxPoint x="120" y="150" as="targetPoint" />
            <Array as="points">
              <mxPoint x="200" y="-40" />
              <mxPoint x="150" y="-50" />
            </Array>
            <mxPoint as="offset" />
          </mxGeometry>
        </mxCell>
        <mxCell id="ZC_jucawOaZovoy7LjFs-96" value="ActivateService&#xa;_provise_onnet_internet" style="whiteSpace=wrap;align=center;verticalAlign=middle;fontStyle=0;strokeWidth=1;fillColor=#FFFFCC" parent="1" vertex="1">
          <mxGeometry x="121" y="-10" width="160" height="40" as="geometry" />
        </mxCell>
        <mxCell id="ZC_jucawOaZovoy7LjFs-98" value="ActivateService&#xa;_provise_offnet_internet" style="whiteSpace=wrap;align=center;verticalAlign=middle;fontStyle=0;strokeWidth=1;fillColor=#FFFFCC" parent="1" vertex="1">
          <mxGeometry x="761" y="-10" width="160" height="40" as="geometry" />
        </mxCell>
        <mxCell id="ZC_jucawOaZovoy7LjFs-99" value="provisioningService = &#xa;SIRO Offnet Internet" style="edgeStyle=elbowEdgeStyle;strokeColor=#990000;strokeWidth=2;rounded=1;jumpStyle=none;exitX=1;exitY=0.5;exitDx=0;exitDy=0;" parent="1" source="X-WOWMCxgD2yHzHwRiwq-127" target="ZC_jucawOaZovoy7LjFs-98" edge="1">
          <mxGeometry x="-0.5804" y="20" width="100" height="100" relative="1" as="geometry">
            <mxPoint x="250" y="90" as="sourcePoint" />
            <mxPoint x="410" y="130" as="targetPoint" />
            <Array as="points">
              <mxPoint x="840" y="-10" />
            </Array>
            <mxPoint as="offset" />
          </mxGeometry>
        </mxCell>
        <mxCell id="ZC_jucawOaZovoy7LjFs-100" value="find all child LDAP services, &#xa;if not active - tmf640 activate " style="whiteSpace=wrap;align=center;verticalAlign=middle;fontStyle=0;strokeWidth=1;fillColor=#befef7;" parent="1" vertex="1">
          <mxGeometry x="601" y="220" width="160" height="40" as="geometry" />
        </mxCell>
        <mxCell id="ZC_jucawOaZovoy7LjFs-103" value="properties.tmfAttributes.&#xa;state = inactive" style="edgeStyle=orthogonalEdgeStyle;strokeColor=#990000;strokeWidth=2;exitX=0;exitY=0.5;exitDx=0;exitDy=0;" parent="1" source="X-WOWMCxgD2yHzHwRiwq-132" target="ZC_jucawOaZovoy7LjFs-100" edge="1">
          <mxGeometry x="0.759" y="-1" width="100" height="100" relative="1" as="geometry">
            <mxPoint x="481" y="90" as="sourcePoint" />
            <mxPoint x="621" y="130" as="targetPoint" />
            <mxPoint as="offset" />
          </mxGeometry>
        </mxCell>
        <mxCell id="X-WOWMCxgD2yHzHwRiwq-96" value="trigger radius RA" style="whiteSpace=wrap;align=center;verticalAlign=middle;fontStyle=0;strokeWidth=1;fillColor=#befef7;" vertex="1" parent="1">
          <mxGeometry x="601" y="260" width="160" height="40" as="geometry" />
        </mxCell>
        <mxCell id="X-WOWMCxgD2yHzHwRiwq-97" value="set internet cfs state to active" style="whiteSpace=wrap;align=center;verticalAlign=middle;fontStyle=0;strokeWidth=1;fillColor=#befef7;" vertex="1" parent="1">
          <mxGeometry x="601" y="300" width="160" height="40" as="geometry" />
        </mxCell>
        <mxCell id="X-WOWMCxgD2yHzHwRiwq-98" value="find all child LDAP and CPE services. if any of them is not active - tmf640 activate it synchronously" style="whiteSpace=wrap;align=center;verticalAlign=middle;fontStyle=0;strokeWidth=1;fillColor=#befef7;" vertex="1" parent="1">
          <mxGeometry x="800" y="221" width="160" height="79" as="geometry" />
        </mxCell>
        <mxCell id="X-WOWMCxgD2yHzHwRiwq-99" value="properties.tmfAttributes.&#xa;state = terminated" style="edgeStyle=orthogonalEdgeStyle;strokeColor=#990000;strokeWidth=2;entryX=0.25;entryY=0;entryDx=0;entryDy=0;exitX=0.5;exitY=1;exitDx=0;exitDy=0;" edge="1" target="X-WOWMCxgD2yHzHwRiwq-98" parent="1" source="X-WOWMCxgD2yHzHwRiwq-132">
          <mxGeometry x="0.4442" y="4" width="100" height="100" relative="1" as="geometry">
            <mxPoint x="880" y="160" as="sourcePoint" />
            <mxPoint x="820" y="130" as="targetPoint" />
            <mxPoint as="offset" />
          </mxGeometry>
        </mxCell>
        <mxCell id="X-WOWMCxgD2yHzHwRiwq-101" value="set internet cfs state to active" style="whiteSpace=wrap;align=center;verticalAlign=middle;fontStyle=0;strokeWidth=1;fillColor=#befef7;" vertex="1" parent="1">
          <mxGeometry x="800" y="301" width="160" height="40" as="geometry" />
        </mxCell>
        <mxCell id="X-WOWMCxgD2yHzHwRiwq-103" value="properties.tmfAttributes.&#xa;state = anything else" style="edgeStyle=orthogonalEdgeStyle;strokeColor=#990000;strokeWidth=2;entryX=0.5;entryY=0;entryDx=0;entryDy=0;exitX=1;exitY=0.5;exitDx=0;exitDy=0;" edge="1" parent="1" source="X-WOWMCxgD2yHzHwRiwq-132" target="X-WOWMCxgD2yHzHwRiwq-104">
          <mxGeometry x="0.8731" y="-50" width="100" height="100" relative="1" as="geometry">
            <mxPoint x="731" y="170" as="sourcePoint" />
            <mxPoint x="1080" y="200" as="targetPoint" />
            <mxPoint as="offset" />
          </mxGeometry>
        </mxCell>
        <mxCell id="X-WOWMCxgD2yHzHwRiwq-104" value="tmf640-create child ONT RFS synchronously" style="whiteSpace=wrap;align=center;verticalAlign=middle;fontStyle=0;strokeWidth=1;fillColor=#befef7;" vertex="1" parent="1">
          <mxGeometry x="1000" y="221" width="160" height="79" as="geometry" />
        </mxCell>
        <mxCell id="X-WOWMCxgD2yHzHwRiwq-105" value="schedule checkStatus" style="whiteSpace=wrap;align=center;verticalAlign=middle;fontStyle=0;strokeWidth=1;fillColor=#befef7;" vertex="1" parent="1">
          <mxGeometry x="1000" y="300" width="160" height="40" as="geometry" />
        </mxCell>
        <mxCell id="X-WOWMCxgD2yHzHwRiwq-106" value="risks:&lt;br&gt;1) multiple calls will result in multiple ONT RFS created" style="shape=callout;whiteSpace=wrap;html=1;perimeter=calloutPerimeter;size=50;position=0.42;" vertex="1" parent="1">
          <mxGeometry x="1040" y="70" width="120" height="160" as="geometry" />
        </mxCell>
        <mxCell id="X-WOWMCxgD2yHzHwRiwq-102" value="risks:&lt;br&gt;1) the reactivation order LDAP/ACS &lt;br&gt;is not deterministic&lt;br&gt;2) radius is not notified" style="shape=callout;whiteSpace=wrap;html=1;perimeter=calloutPerimeter;size=50;position=0.42;" vertex="1" parent="1">
          <mxGeometry x="880" y="70" width="120" height="160" as="geometry" />
        </mxCell>
        <mxCell id="X-WOWMCxgD2yHzHwRiwq-107" value="find all child LDAP services, &#xa;if not active - tmf640 activate " style="whiteSpace=wrap;align=center;verticalAlign=middle;fontStyle=0;strokeWidth=1;fillColor=#befef7;" vertex="1" parent="1">
          <mxGeometry x="-40" y="220" width="160" height="40" as="geometry" />
        </mxCell>
        <mxCell id="X-WOWMCxgD2yHzHwRiwq-108" value="properties.tmfAttributes.&#xa;state = inactive" style="edgeStyle=elbowEdgeStyle;strokeColor=#990000;strokeWidth=2;entryX=0.75;entryY=0;entryDx=0;entryDy=0;" edge="1" target="X-WOWMCxgD2yHzHwRiwq-107" parent="1" source="X-WOWMCxgD2yHzHwRiwq-129">
          <mxGeometry x="0.7156" y="-20" width="100" height="100" relative="1" as="geometry">
            <mxPoint x="121" y="180" as="sourcePoint" />
            <mxPoint x="61" y="150" as="targetPoint" />
            <Array as="points">
              <mxPoint x="80" y="160" />
            </Array>
            <mxPoint as="offset" />
          </mxGeometry>
        </mxCell>
        <mxCell id="X-WOWMCxgD2yHzHwRiwq-109" value="trigger radius RA" style="whiteSpace=wrap;align=center;verticalAlign=middle;fontStyle=0;strokeWidth=1;fillColor=#befef7;" vertex="1" parent="1">
          <mxGeometry x="-40" y="260" width="160" height="40" as="geometry" />
        </mxCell>
        <mxCell id="X-WOWMCxgD2yHzHwRiwq-110" value="set internet cfs state to active" style="whiteSpace=wrap;align=center;verticalAlign=middle;fontStyle=0;strokeWidth=1;fillColor=#befef7;" vertex="1" parent="1">
          <mxGeometry x="-40" y="300" width="160" height="40" as="geometry" />
        </mxCell>
        <mxCell id="X-WOWMCxgD2yHzHwRiwq-111" value="risks:&lt;br&gt;code duplicate from _provise_offnet_internet" style="shape=callout;whiteSpace=wrap;html=1;perimeter=calloutPerimeter;size=50;position=0.43;" vertex="1" parent="1">
          <mxGeometry x="-90" y="75" width="140" height="150" as="geometry" />
        </mxCell>
        <mxCell id="X-WOWMCxgD2yHzHwRiwq-125" style="edgeStyle=orthogonalEdgeStyle;rounded=1;orthogonalLoop=1;jettySize=auto;html=1;exitX=0.5;exitY=1;exitDx=0;exitDy=0;entryX=0.5;entryY=0;entryDx=0;entryDy=0;strokeColor=#FF0000;strokeWidth=2;dashed=1;" edge="1" parent="1" source="X-WOWMCxgD2yHzHwRiwq-115" target="X-WOWMCxgD2yHzHwRiwq-123">
          <mxGeometry relative="1" as="geometry">
            <Array as="points">
              <mxPoint x="241" y="360" />
              <mxPoint x="-100" y="360" />
              <mxPoint x="-100" y="-190" />
              <mxPoint x="-840" y="-190" />
            </Array>
          </mxGeometry>
        </mxCell>
        <mxCell id="X-WOWMCxgD2yHzHwRiwq-115" value="find all child PON, LDAP, CPE, PLUME account services. if any of them is not active - tmf640 activate it synchronously" style="whiteSpace=wrap;align=center;verticalAlign=middle;fontStyle=0;strokeWidth=1;fillColor=#befef7;" vertex="1" parent="1">
          <mxGeometry x="161" y="220" width="160" height="79" as="geometry" />
        </mxCell>
        <mxCell id="X-WOWMCxgD2yHzHwRiwq-116" value="properties.tmfAttributes.&#xa;state = terminated" style="edgeStyle=orthogonalEdgeStyle;strokeColor=#990000;strokeWidth=2;exitX=0.5;exitY=1;exitDx=0;exitDy=0;entryX=0.25;entryY=0;entryDx=0;entryDy=0;" edge="1" target="X-WOWMCxgD2yHzHwRiwq-115" parent="1" source="X-WOWMCxgD2yHzHwRiwq-129">
          <mxGeometry x="0.3333" y="-21" width="100" height="100" relative="1" as="geometry">
            <mxPoint x="91" y="159" as="sourcePoint" />
            <mxPoint x="181" y="129" as="targetPoint" />
            <Array as="points" />
            <mxPoint as="offset" />
          </mxGeometry>
        </mxCell>
        <mxCell id="X-WOWMCxgD2yHzHwRiwq-119" value="tmf640-create child PON, LDAP, CPE, PLUME RFS synchronously" style="whiteSpace=wrap;align=center;verticalAlign=middle;fontStyle=0;strokeWidth=1;fillColor=#befef7;" vertex="1" parent="1">
          <mxGeometry x="359" y="221" width="160" height="79" as="geometry" />
        </mxCell>
        <mxCell id="X-WOWMCxgD2yHzHwRiwq-122" value="risks:&lt;br&gt;1) multiple calls will result in multiple RFS created&lt;br&gt;2) the service is in use before the plume notification arrives and CFY is notified" style="shape=callout;whiteSpace=wrap;html=1;perimeter=calloutPerimeter;size=51;position=0.59;base=28;" vertex="1" parent="1">
          <mxGeometry x="410" y="70" width="170" height="151" as="geometry" />
        </mxCell>
        <mxCell id="X-WOWMCxgD2yHzHwRiwq-118" value="risks:&lt;br&gt;1) the child reactivation order&amp;nbsp;may vary&lt;br&gt;2) radius is not notified" style="shape=callout;whiteSpace=wrap;html=1;perimeter=calloutPerimeter;size=40;position=0.5;" vertex="1" parent="1">
          <mxGeometry x="220" y="70" width="120" height="160" as="geometry" />
        </mxCell>
        <mxCell id="X-WOWMCxgD2yHzHwRiwq-123" value="cfs.retail.internet&#xa;PlumeProvisioningNotification" style="whiteSpace=wrap;align=center;verticalAlign=middle;fontStyle=1;strokeWidth=1;fillColor=#FFFFCC" vertex="1" parent="1">
          <mxGeometry x="-940" y="-160" width="200" height="40" as="geometry" />
        </mxCell>
        <mxCell id="X-WOWMCxgD2yHzHwRiwq-126" style="edgeStyle=orthogonalEdgeStyle;rounded=1;orthogonalLoop=1;jettySize=auto;html=1;exitX=0.5;exitY=1;exitDx=0;exitDy=0;strokeColor=#FF0000;strokeWidth=2;dashed=1;entryX=0.5;entryY=0;entryDx=0;entryDy=0;" edge="1" parent="1" source="X-WOWMCxgD2yHzHwRiwq-119" target="X-WOWMCxgD2yHzHwRiwq-123">
          <mxGeometry relative="1" as="geometry">
            <mxPoint x="251" y="309" as="sourcePoint" />
            <mxPoint x="-395" y="-50" as="targetPoint" />
            <Array as="points">
              <mxPoint x="440" y="300" />
              <mxPoint x="440" y="360" />
              <mxPoint x="-100" y="360" />
              <mxPoint x="-100" y="-190" />
              <mxPoint x="-840" y="-190" />
            </Array>
          </mxGeometry>
        </mxCell>
        <mxCell id="X-WOWMCxgD2yHzHwRiwq-127" value="" style="rhombus;whiteSpace=wrap;html=1;" vertex="1" parent="1">
          <mxGeometry x="500" y="-90" width="80" height="80" as="geometry" />
        </mxCell>
        <mxCell id="X-WOWMCxgD2yHzHwRiwq-128" value="" style="edgeStyle=none;noEdgeStyle=1;strokeColor=#990000;strokeWidth=2;" edge="1" parent="1" source="3" target="X-WOWMCxgD2yHzHwRiwq-127">
          <mxGeometry x="0.7363" y="14" width="100" height="100" relative="1" as="geometry">
            <mxPoint x="366" y="170" as="sourcePoint" />
            <mxPoint x="576" y="231" as="targetPoint" />
            <mxPoint as="offset" />
          </mxGeometry>
        </mxCell>
        <mxCell id="X-WOWMCxgD2yHzHwRiwq-129" value="" style="rhombus;whiteSpace=wrap;html=1;" vertex="1" parent="1">
          <mxGeometry x="161" y="50" width="80" height="80" as="geometry" />
        </mxCell>
        <mxCell id="X-WOWMCxgD2yHzHwRiwq-130" value="" style="edgeStyle=none;noEdgeStyle=1;strokeColor=#990000;strokeWidth=2;" edge="1" parent="1" source="ZC_jucawOaZovoy7LjFs-96" target="X-WOWMCxgD2yHzHwRiwq-129">
          <mxGeometry x="0.437" y="7" width="100" height="100" relative="1" as="geometry">
            <mxPoint x="160" y="140" as="sourcePoint" />
            <mxPoint x="251" y="230" as="targetPoint" />
            <mxPoint as="offset" />
          </mxGeometry>
        </mxCell>
        <mxCell id="X-WOWMCxgD2yHzHwRiwq-121" value="properties.tmfAttributes.&#xa;state = anything else" style="edgeStyle=elbowEdgeStyle;strokeColor=#990000;strokeWidth=2;exitX=1;exitY=0.5;exitDx=0;exitDy=0;" edge="1" target="X-WOWMCxgD2yHzHwRiwq-119" parent="1" source="X-WOWMCxgD2yHzHwRiwq-129">
          <mxGeometry x="0.8182" width="100" height="100" relative="1" as="geometry">
            <mxPoint x="120" y="156" as="sourcePoint" />
            <mxPoint x="439" y="200" as="targetPoint" />
            <Array as="points">
              <mxPoint x="400" y="160" />
            </Array>
            <mxPoint as="offset" />
          </mxGeometry>
        </mxCell>
        <mxCell id="X-WOWMCxgD2yHzHwRiwq-131" value="" style="edgeStyle=none;noEdgeStyle=1;strokeColor=#990000;strokeWidth=2;" edge="1" target="X-WOWMCxgD2yHzHwRiwq-132" parent="1" source="ZC_jucawOaZovoy7LjFs-98">
          <mxGeometry x="0.437" y="7" width="100" height="100" relative="1" as="geometry">
            <mxPoint x="750" y="30" as="sourcePoint" />
            <mxPoint x="800" y="230" as="targetPoint" />
            <mxPoint as="offset" />
          </mxGeometry>
        </mxCell>
        <mxCell id="X-WOWMCxgD2yHzHwRiwq-132" value="" style="rhombus;whiteSpace=wrap;html=1;" vertex="1" parent="1">
          <mxGeometry x="800" y="50" width="80" height="80" as="geometry" />
        </mxCell>
        <mxCell id="X-WOWMCxgD2yHzHwRiwq-133" value="" style="edgeStyle=elbowEdgeStyle;strokeColor=#990000;strokeWidth=2;exitX=0.75;exitY=1;exitDx=0;exitDy=0;entryX=0;entryY=0.5;entryDx=0;entryDy=0;" edge="1" parent="1" source="X-WOWMCxgD2yHzHwRiwq-110" target="X-WOWMCxgD2yHzHwRiwq-135">
          <mxGeometry x="0.7156" y="-20" width="100" height="100" relative="1" as="geometry">
            <mxPoint x="171" y="100" as="sourcePoint" />
            <mxPoint x="170" y="410" as="targetPoint" />
            <Array as="points">
              <mxPoint x="80" y="380" />
            </Array>
            <mxPoint as="offset" />
          </mxGeometry>
        </mxCell>
        <mxCell id="X-WOWMCxgD2yHzHwRiwq-134" value="" style="edgeStyle=orthogonalEdgeStyle;strokeColor=#990000;strokeWidth=2;exitX=0.25;exitY=1;exitDx=0;exitDy=0;entryX=0.5;entryY=0;entryDx=0;entryDy=0;" edge="1" parent="1" source="X-WOWMCxgD2yHzHwRiwq-115" target="X-WOWMCxgD2yHzHwRiwq-135">
          <mxGeometry x="0.3333" y="-21" width="100" height="100" relative="1" as="geometry">
            <mxPoint x="211" y="140" as="sourcePoint" />
            <mxPoint x="240" y="400" as="targetPoint" />
            <Array as="points" />
            <mxPoint as="offset" />
          </mxGeometry>
        </mxCell>
        <mxCell id="X-WOWMCxgD2yHzHwRiwq-135" value="" style="ellipse;whiteSpace=wrap;html=1;aspect=fixed;" vertex="1" parent="1">
          <mxGeometry x="180.5" y="400" width="41" height="41" as="geometry" />
        </mxCell>
        <mxCell id="X-WOWMCxgD2yHzHwRiwq-136" value="" style="edgeStyle=elbowEdgeStyle;strokeColor=#990000;strokeWidth=2;exitX=0.25;exitY=1;exitDx=0;exitDy=0;entryX=1;entryY=0.5;entryDx=0;entryDy=0;" edge="1" parent="1" source="X-WOWMCxgD2yHzHwRiwq-119" target="X-WOWMCxgD2yHzHwRiwq-135">
          <mxGeometry x="0.7156" y="-20" width="100" height="100" relative="1" as="geometry">
            <mxPoint x="90" y="350" as="sourcePoint" />
            <mxPoint x="191" y="431" as="targetPoint" />
            <Array as="points">
              <mxPoint x="400" y="390" />
            </Array>
            <mxPoint as="offset" />
          </mxGeometry>
        </mxCell>
        <mxCell id="X-WOWMCxgD2yHzHwRiwq-137" value="" style="edgeStyle=elbowEdgeStyle;strokeColor=#990000;strokeWidth=2;exitX=0.5;exitY=1;exitDx=0;exitDy=0;entryX=1;entryY=0.5;entryDx=0;entryDy=0;" edge="1" target="X-WOWMCxgD2yHzHwRiwq-140" parent="1" source="X-WOWMCxgD2yHzHwRiwq-105">
          <mxGeometry x="0.7156" y="-20" width="100" height="100" relative="1" as="geometry">
            <mxPoint x="999" y="301" as="sourcePoint" />
            <mxPoint x="791" y="432" as="targetPoint" />
            <Array as="points">
              <mxPoint x="1080" y="390" />
            </Array>
            <mxPoint as="offset" />
          </mxGeometry>
        </mxCell>
        <mxCell id="X-WOWMCxgD2yHzHwRiwq-138" value="" style="edgeStyle=orthogonalEdgeStyle;strokeColor=#990000;strokeWidth=2;entryX=0.5;entryY=0;entryDx=0;entryDy=0;exitX=0.25;exitY=1;exitDx=0;exitDy=0;" edge="1" target="X-WOWMCxgD2yHzHwRiwq-140" parent="1" source="X-WOWMCxgD2yHzHwRiwq-101">
          <mxGeometry x="0.3333" y="-21" width="100" height="100" relative="1" as="geometry">
            <mxPoint x="840" y="330" as="sourcePoint" />
            <mxPoint x="840" y="401" as="targetPoint" />
            <Array as="points" />
            <mxPoint as="offset" />
          </mxGeometry>
        </mxCell>
        <mxCell id="X-WOWMCxgD2yHzHwRiwq-139" value="" style="edgeStyle=elbowEdgeStyle;strokeColor=#990000;strokeWidth=2;entryX=0;entryY=0.5;entryDx=0;entryDy=0;" edge="1" target="X-WOWMCxgD2yHzHwRiwq-140" parent="1" source="X-WOWMCxgD2yHzHwRiwq-97">
          <mxGeometry x="0.7156" y="-20" width="100" height="100" relative="1" as="geometry">
            <mxPoint x="680" y="341" as="sourcePoint" />
            <mxPoint x="770" y="411" as="targetPoint" />
            <Array as="points">
              <mxPoint x="680" y="381" />
            </Array>
            <mxPoint as="offset" />
          </mxGeometry>
        </mxCell>
        <mxCell id="X-WOWMCxgD2yHzHwRiwq-140" value="" style="ellipse;whiteSpace=wrap;html=1;aspect=fixed;" vertex="1" parent="1">
          <mxGeometry x="819.5" y="400" width="41" height="41" as="geometry" />
        </mxCell>
        <mxCell id="X-WOWMCxgD2yHzHwRiwq-141" value="" style="ellipse;whiteSpace=wrap;html=1;aspect=fixed;" vertex="1" parent="1">
          <mxGeometry x="520.5" y="480" width="41" height="41" as="geometry" />
        </mxCell>
        <mxCell id="X-WOWMCxgD2yHzHwRiwq-142" value="" style="edgeStyle=elbowEdgeStyle;strokeColor=#990000;strokeWidth=2;exitX=0.5;exitY=1;exitDx=0;exitDy=0;entryX=0;entryY=0.5;entryDx=0;entryDy=0;" edge="1" target="X-WOWMCxgD2yHzHwRiwq-141" parent="1" source="X-WOWMCxgD2yHzHwRiwq-135">
          <mxGeometry x="0.7156" y="-20" width="100" height="100" relative="1" as="geometry">
            <mxPoint x="420" y="420" as="sourcePoint" />
            <mxPoint x="510" y="490" as="targetPoint" />
            <Array as="points">
              <mxPoint x="200" y="460" />
            </Array>
            <mxPoint as="offset" />
          </mxGeometry>
        </mxCell>
        <mxCell id="X-WOWMCxgD2yHzHwRiwq-143" value="" style="edgeStyle=elbowEdgeStyle;strokeColor=#990000;strokeWidth=2;exitX=0.5;exitY=1;exitDx=0;exitDy=0;entryX=1;entryY=0.5;entryDx=0;entryDy=0;" edge="1" target="X-WOWMCxgD2yHzHwRiwq-141" parent="1" source="X-WOWMCxgD2yHzHwRiwq-140">
          <mxGeometry x="0.7156" y="-20" width="100" height="100" relative="1" as="geometry">
            <mxPoint x="840" y="480" as="sourcePoint" />
            <mxPoint x="531" y="511" as="targetPoint" />
            <Array as="points">
              <mxPoint x="840" y="470" />
            </Array>
            <mxPoint as="offset" />
          </mxGeometry>
        </mxCell>
        <mxCell id="X-WOWMCxgD2yHzHwRiwq-145" value="cfs.retail.plume_account&#xa;PlumeNotificationPatch" style="whiteSpace=wrap;align=center;verticalAlign=middle;fontStyle=1;strokeWidth=1;fillColor=#FFFFCC" vertex="1" parent="1">
          <mxGeometry x="-1080" y="120" width="160.5" height="40" as="geometry" />
        </mxCell>
        <mxCell id="X-WOWMCxgD2yHzHwRiwq-148" value="" style="rhombus;whiteSpace=wrap;html=1;" vertex="1" parent="1">
          <mxGeometry x="-880" y="-80" width="80" height="80" as="geometry" />
        </mxCell>
        <mxCell id="X-WOWMCxgD2yHzHwRiwq-151" value="" style="edgeStyle=none;noEdgeStyle=1;strokeColor=#990000;strokeWidth=2;startArrow=none;exitX=0.5;exitY=1;exitDx=0;exitDy=0;" edge="1" parent="1" source="X-WOWMCxgD2yHzHwRiwq-123" target="X-WOWMCxgD2yHzHwRiwq-148">
          <mxGeometry x="0.437" y="7" width="100" height="100" relative="1" as="geometry">
            <mxPoint x="-830" as="sourcePoint" />
            <mxPoint x="-840" y="-90" as="targetPoint" />
            <mxPoint as="offset" />
          </mxGeometry>
        </mxCell>
        <mxCell id="X-WOWMCxgD2yHzHwRiwq-152" value="last activity in [terminate , activate]" style="edgeStyle=elbowEdgeStyle;strokeColor=#990000;strokeWidth=2;exitX=0;exitY=0.5;exitDx=0;exitDy=0;entryX=0.5;entryY=0;entryDx=0;entryDy=0;" edge="1" parent="1" source="X-WOWMCxgD2yHzHwRiwq-148" target="X-WOWMCxgD2yHzHwRiwq-145">
          <mxGeometry x="0.8555" y="-20" width="100" height="100" relative="1" as="geometry">
            <mxPoint x="-880" as="sourcePoint" />
            <mxPoint x="-980" y="120" as="targetPoint" />
            <Array as="points">
              <mxPoint x="-1000" y="40" />
            </Array>
            <mxPoint as="offset" />
          </mxGeometry>
        </mxCell>
        <mxCell id="X-WOWMCxgD2yHzHwRiwq-153" value="risk:&lt;br&gt;the code is seriously coupled with all other InternetCFS classes (operations)" style="shape=callout;whiteSpace=wrap;html=1;perimeter=calloutPerimeter;position2=0.52;size=70;position=0.44;" vertex="1" parent="1">
          <mxGeometry x="-1040" y="-280" width="270" height="130" as="geometry" />
        </mxCell>
        <mxCell id="X-WOWMCxgD2yHzHwRiwq-162" value="" style="edgeStyle=none;noEdgeStyle=1;strokeColor=#990000;strokeWidth=2;exitX=0.5;exitY=1;exitDx=0;exitDy=0;" edge="1" parent="1" source="X-WOWMCxgD2yHzHwRiwq-145">
          <mxGeometry x="0.437" y="7" width="100" height="100" relative="1" as="geometry">
            <mxPoint x="-979" y="180" as="sourcePoint" />
            <mxPoint x="-1000.0015527950311" y="200.2484472049689" as="targetPoint" />
            <mxPoint as="offset" />
          </mxGeometry>
        </mxCell>
        <mxCell id="X-WOWMCxgD2yHzHwRiwq-170" value="set internet CFS state on behalf of Activate, Terminate, UpdateCharacteristics and other classes" style="whiteSpace=wrap;align=center;verticalAlign=middle;fontStyle=0;strokeWidth=1;fillColor=#befef7;" vertex="1" parent="1">
          <mxGeometry x="-1079.5" y="200.5" width="160" height="79" as="geometry" />
        </mxCell>
        <mxCell id="X-WOWMCxgD2yHzHwRiwq-177" value="cfs.retail.plume_account&#xa;PlumeNotificationPatch" style="whiteSpace=wrap;align=center;verticalAlign=middle;fontStyle=1;strokeWidth=1;fillColor=#FFFFCC" vertex="1" parent="1">
          <mxGeometry x="-820.5" y="120" width="160.5" height="40" as="geometry" />
        </mxCell>
        <mxCell id="X-WOWMCxgD2yHzHwRiwq-178" value="last activity = updateCharacteristics" style="edgeStyle=elbowEdgeStyle;strokeColor=#990000;strokeWidth=2;startArrow=none;exitX=1;exitY=0.5;exitDx=0;exitDy=0;entryX=0.5;entryY=0;entryDx=0;entryDy=0;" edge="1" parent="1" source="X-WOWMCxgD2yHzHwRiwq-148" target="X-WOWMCxgD2yHzHwRiwq-180">
          <mxGeometry x="0.4545" y="20" width="100" height="100" relative="1" as="geometry">
            <mxPoint x="-800" y="-40" as="sourcePoint" />
            <mxPoint x="-690" y="140" as="targetPoint" />
            <Array as="points">
              <mxPoint x="-520" y="-50" />
            </Array>
            <mxPoint as="offset" />
          </mxGeometry>
        </mxCell>
        <mxCell id="X-WOWMCxgD2yHzHwRiwq-180" value="" style="rhombus;whiteSpace=wrap;html=1;" vertex="1" parent="1">
          <mxGeometry x="-560" y="-20" width="80" height="80" as="geometry" />
        </mxCell>
        <mxCell id="X-WOWMCxgD2yHzHwRiwq-182" value="cfs.retail.plume_account&#xa;PlumeNotificationPatch" style="whiteSpace=wrap;align=center;verticalAlign=middle;fontStyle=1;strokeWidth=1;fillColor=#FFFFCC" vertex="1" parent="1">
          <mxGeometry x="-380" y="120" width="160.5" height="40" as="geometry" />
        </mxCell>
        <mxCell id="X-WOWMCxgD2yHzHwRiwq-183" value="mspAction = OffnetInstallation" style="edgeStyle=elbowEdgeStyle;strokeColor=#990000;strokeWidth=2;entryX=0.5;entryY=0;entryDx=0;entryDy=0;exitX=0;exitY=0.5;exitDx=0;exitDy=0;" edge="1" parent="1" source="X-WOWMCxgD2yHzHwRiwq-180" target="X-WOWMCxgD2yHzHwRiwq-177">
          <mxGeometry x="0.8555" y="-20" width="100" height="100" relative="1" as="geometry">
            <mxPoint x="-669" y="20" as="sourcePoint" />
            <mxPoint x="-750" y="150" as="targetPoint" />
            <Array as="points">
              <mxPoint x="-740" y="70" />
            </Array>
            <mxPoint as="offset" />
          </mxGeometry>
        </mxCell>
        <mxCell id="X-WOWMCxgD2yHzHwRiwq-184" value="mspAction = anything else" style="edgeStyle=elbowEdgeStyle;strokeColor=#990000;strokeWidth=2;entryX=0.5;entryY=0;entryDx=0;entryDy=0;" edge="1" parent="1" source="X-WOWMCxgD2yHzHwRiwq-180" target="X-WOWMCxgD2yHzHwRiwq-182">
          <mxGeometry x="0.8555" y="10" width="100" height="100" relative="1" as="geometry">
            <mxPoint x="-580" y="20" as="sourcePoint" />
            <mxPoint x="-421" y="151" as="targetPoint" />
            <Array as="points">
              <mxPoint x="-300" y="70" />
              <mxPoint x="-500" y="70" />
            </Array>
            <mxPoint as="offset" />
          </mxGeometry>
        </mxCell>
        <mxCell id="X-WOWMCxgD2yHzHwRiwq-185" value="mspAction = CommitSwap" style="edgeStyle=none;noEdgeStyle=1;strokeColor=#990000;strokeWidth=2;exitX=0.5;exitY=1;exitDx=0;exitDy=0;" edge="1" parent="1" source="X-WOWMCxgD2yHzHwRiwq-180">
          <mxGeometry x="0.3333" y="10" width="100" height="100" relative="1" as="geometry">
            <mxPoint x="-49" y="40" as="sourcePoint" />
            <mxPoint x="-520" y="120" as="targetPoint" />
            <mxPoint as="offset" />
          </mxGeometry>
        </mxCell>
        <mxCell id="X-WOWMCxgD2yHzHwRiwq-186" value="cfs.retail.plume_account&#xa;PlumeNotificationPatch" style="whiteSpace=wrap;align=center;verticalAlign=middle;fontStyle=1;strokeWidth=1;fillColor=#FFFFCC" vertex="1" parent="1">
          <mxGeometry x="-600.25" y="120" width="160.5" height="40" as="geometry" />
        </mxCell>
        <mxCell id="X-WOWMCxgD2yHzHwRiwq-188" value="" style="edgeStyle=none;noEdgeStyle=1;strokeColor=#990000;strokeWidth=2;exitX=0.5;exitY=1;exitDx=0;exitDy=0;" edge="1" parent="1" source="X-WOWMCxgD2yHzHwRiwq-177">
          <mxGeometry x="0.437" y="7" width="100" height="100" relative="1" as="geometry">
            <mxPoint x="-740.5" y="160" as="sourcePoint" />
            <mxPoint x="-740.5015527950311" y="200.2484472049689" as="targetPoint" />
            <mxPoint as="offset" />
          </mxGeometry>
        </mxCell>
        <mxCell id="X-WOWMCxgD2yHzHwRiwq-189" value="set internet CFS state on behalf of Activate, Terminate, UpdateCharacteristics and other classes" style="whiteSpace=wrap;align=center;verticalAlign=middle;fontStyle=0;strokeWidth=1;fillColor=#befef7;" vertex="1" parent="1">
          <mxGeometry x="-820" y="200.5" width="160" height="79" as="geometry" />
        </mxCell>
        <mxCell id="X-WOWMCxgD2yHzHwRiwq-190" value="cfs.retail.internet&#xa;CheckStatus" style="whiteSpace=wrap;align=center;verticalAlign=middle;fontStyle=1;strokeWidth=1;fillColor=#FFFFCC" vertex="1" parent="1">
          <mxGeometry x="-1600" y="-160" width="200" height="40" as="geometry" />
        </mxCell>
        <mxCell id="X-WOWMCxgD2yHzHwRiwq-192" style="edgeStyle=orthogonalEdgeStyle;rounded=1;orthogonalLoop=1;jettySize=auto;html=1;strokeColor=#FF0000;strokeWidth=2;dashed=1;entryX=0.5;entryY=0;entryDx=0;entryDy=0;exitX=0.25;exitY=1;exitDx=0;exitDy=0;" edge="1" parent="1" source="X-WOWMCxgD2yHzHwRiwq-105" target="X-WOWMCxgD2yHzHwRiwq-190">
          <mxGeometry relative="1" as="geometry">
            <mxPoint x="710" y="400" as="sourcePoint" />
            <mxPoint x="-830" y="-150" as="targetPoint" />
            <Array as="points">
              <mxPoint x="1040" y="530" />
              <mxPoint x="-120" y="530" />
              <mxPoint x="-120" y="-210" />
              <mxPoint x="-1500" y="-210" />
            </Array>
          </mxGeometry>
        </mxCell>
      </root>
    </mxGraphModel>
  </diagram>
</mxfile>
